<?xml version="1.0" standalone="no"?><!DOCTYPE svg PUBLIC "-//W3C//DTD SVG 1.1//EN" "http://www.w3.org/Graphics/SVG/1.1/DTD/svg11.dtd"><svg width="200" height="200" viewBox="0 0 200 200" version="1.1" xmlns="http://www.w3.org/2000/svg" xmlns:xlink="http://www.w3.org/1999/xlink"><defs><style type="text/css"><![CDATA[
@font-face { font-family: ifont; src: url("//at.alicdn.com/t/font_1442373896_4754455.eot?#iefix") format("embedded-opentype"), url("//at.alicdn.com/t/font_1442373896_4754455.woff") format("woff"), url("//at.alicdn.com/t/font_1442373896_4754455.ttf") format("truetype"), url("//at.alicdn.com/t/font_1442373896_4754455.svg#ifont") format("svg"); }

]]></style></defs><g class="transform-group"><g transform="scale(0.1953125, 0.1953125)"><path d="M274.6507 926.386c-32.2714 0-69.9554-19.4118-69.9554-74.1167l0-307.791317-63.959258 0c-11.6736 0-24.8052-7.6978-35.1276-20.59-10.8591-13.5648-16.8393-31.036-16.8393-49.1956l0-8.078523L500.0121 41.0093c4.8149-4.8137 11.6246-7.2551 20.2401-7.2551 9.7238 0 17.1191 2.4643 21.981 7.326 1.4381 1.439 372.001 378.6023 414.2501 421.6042l5.7294 5.832 0 8.175457c0 18.6444-3.135 32.9447-9.5819 43.7194-8.5166 14.2314-22.8594 22.069-40.3863 22.069l-62.021492 0-0.9454 312.1913-0.5487 2.2755c-0.4177 1.7348-4.3872 17.4062-15.0444 33.3904-15.649 23.4741-37.5561 35.8817-63.3506 35.8817L618.407718 926.219157l0.023-20.0094c0.0929-78.4838 0.2738-284.1503 0.009-293.1902-0.1379-4.6728-4.707-16.5768-10.0026-16.5768l-164.894962 0c-3.6667 0-10.993 6.9123-10.993 15.9892l0 313.787252L279.490608 926.219209C278.3883 926.3001 276.7314 926.386 274.6507 926.386zM142.8506 504.5051l101.819141 0 0 347.764216c0 8.4443 0 34.1439 29.9809 34.1439 0.9774 0 1.645-0.04 1.8908-0.058l1.2072-0.1599 0.8984 0.051 113.927428 0 0-273.814354c0-29.8118 23.8168-55.9621 50.9675-55.9621l164.894962 0c15.9219 0 29.9219 8.1405 39.4239 22.9195 7.4023 11.5152 10.2964 24.3165 10.5353 32.456 0.2888 9.8223 0.1009 209.2551 0.031 274.402l111.906715 0c25.8855 0 36.5197-28.7275 38.9842-36.7491l1.0513-346.9907 101.874106 0c4.5151 0 5.2417-1.2152 6.0841-2.6232 1.1623-1.9407 2.9501-6.2987 3.6327-15.3006-46.6883-47.5188-349.8521-356.0836-400.8087-407.9294L129.3692 482.1233C131.6928 495.4852 139.8426 502.6693 142.8506 504.5051z" fill="#757575"></path></g></g></svg>