<?xml version="1.0" standalone="no"?><!DOCTYPE svg PUBLIC "-//W3C//DTD SVG 1.1//EN" "http://www.w3.org/Graphics/SVG/1.1/DTD/svg11.dtd"><svg width="200.1953125" height="200" viewBox="0 0 200.1953125 200" version="1.1" xmlns="http://www.w3.org/2000/svg" xmlns:xlink="http://www.w3.org/1999/xlink"><defs><style type="text/css"><![CDATA[
@font-face { font-family: ifont; src: url("//at.alicdn.com/t/font_1442373896_4754455.eot?#iefix") format("embedded-opentype"), url("//at.alicdn.com/t/font_1442373896_4754455.woff") format("woff"), url("//at.alicdn.com/t/font_1442373896_4754455.ttf") format("truetype"), url("//at.alicdn.com/t/font_1442373896_4754455.svg#ifont") format("svg"); }

]]></style></defs><g class="transform-group"><g transform="scale(0.1953125, 0.1953125)"><path d="M511.940923 0C229.710769 0 0.039385 229.691077 0.039385 512c0 282.249846 229.671385 512 511.901538 512 282.368 0 512.098462-229.691077 512.098462-512C1024.019692 229.750154 794.308923 0 511.940923 0zM691.042462 785.880615 333.016615 785.880615c-44.859077 0-81.368615-36.509538-81.368615-81.368615l0-146.471385-8.132923 0c-31.409231 0-56.950154-25.560615-56.950154-56.969846 0-15.675077 6.301538-30.306462 17.762462-41.216l256.630154-223.330462c12.977231-13.036308 31.330462-20.637538 50.845538-20.637538 19.534769 0 37.888 7.601231 51.692308 21.405538l256.905846 223.232c11.382154 11.638154 17.112615 25.718154 17.112615 40.546462 0 31.389538-25.560615 56.969846-56.969846 56.969846l-8.132923 0 0 146.471385C772.411077 749.371077 735.921231 785.880615 691.042462 785.880615L691.042462 785.880615zM511.803077 248.457846c-10.830769 0-21.011692 4.214154-28.672 11.854769L226.205538 483.938462c-4.391385 4.194462-7.108923 10.456615-7.108923 17.132308 0 13.469538 10.948923 24.418462 24.418462 24.418462l40.684308 0 0 179.022769c0 26.919385 21.897846 48.817231 48.817231 48.817231l358.025846 0c26.919385 0 48.817231-21.897846 48.817231-48.817231l0-179.022769 40.684308 0c13.469538 0 24.418462-10.948923 24.418462-24.418462 0-6.321231-2.441846-12.327385-6.912-16.935385L541.302154 261.100308C532.814769 252.672 522.633846 248.457846 511.803077 248.457846L511.803077 248.457846zM511.803077 248.457846" fill="#00bcd4"></path></g></g></svg>