<?xml version="1.0" standalone="no"?><!DOCTYPE svg PUBLIC "-//W3C//DTD SVG 1.1//EN" "http://www.w3.org/Graphics/SVG/1.1/DTD/svg11.dtd"><svg width="200" height="200" viewBox="0 0 200 200" version="1.1" xmlns="http://www.w3.org/2000/svg" xmlns:xlink="http://www.w3.org/1999/xlink"><defs><style type="text/css"><![CDATA[
@font-face { font-family: ifont; src: url("//at.alicdn.com/t/font_1442373896_4754455.eot?#iefix") format("embedded-opentype"), url("//at.alicdn.com/t/font_1442373896_4754455.woff") format("woff"), url("//at.alicdn.com/t/font_1442373896_4754455.ttf") format("truetype"), url("//at.alicdn.com/t/font_1442373896_4754455.svg#ifont") format("svg"); }

]]></style></defs><g class="transform-group"><g transform="scale(0.1953125, 0.1953125)"><path d="M170.624 572.16l0.64 0L144.896 602.176l0 408.576c0 0 30.08 0.768 67.2 0.768l166.592 0c-0.128-2.112-0.256-4.224-0.256-6.4l0-272.576c0-39.296 27.52-71.232 61.44-71.232l142.016 0c33.92 0 61.44 31.872 61.44 71.232l0 272.576c0 2.112-0.064 4.224-0.192 6.4l168.768 0c37.12 0 67.2-0.768 67.2-0.768L879.104 602.176 852.736 572.16l0.576 0L527.04 202.048C526.784 201.792 521.984 194.432 511.872 194.432c-8.64 0-14.72 7.36-14.976 7.616L170.624 572.16 170.624 572.16zM436.096 46.016 6.72 501.184c15.936 32.384 44.16 57.024 78.208 66.752L490.24 140.16c2.496-2.688 4.992-4.992 7.488-6.976 4.736-4.608 9.472-6.528 14.208-6.336 4.672-0.192 9.344 1.728 14.336 6.336C528.64 135.168 531.136 137.472 533.632 140.16l405.312 427.712c34.112-9.92 62.464-34.752 78.336-67.52l-428.608-454.4C546.496 1.344 478.208 1.344 436.096 46.016L436.096 46.016zM436.096 46.016" fill="#00bcd4"></path></g></g></svg>