<?xml version="1.0" standalone="no"?><!DOCTYPE svg PUBLIC "-//W3C//DTD SVG 1.1//EN" "http://www.w3.org/Graphics/SVG/1.1/DTD/svg11.dtd"><svg width="200" height="200" viewBox="0 0 200 200" version="1.1" xmlns="http://www.w3.org/2000/svg" xmlns:xlink="http://www.w3.org/1999/xlink"><defs><style type="text/css"><![CDATA[
@font-face { font-family: ifont; src: url("//at.alicdn.com/t/font_1442373896_4754455.eot?#iefix") format("embedded-opentype"), url("//at.alicdn.com/t/font_1442373896_4754455.woff") format("woff"), url("//at.alicdn.com/t/font_1442373896_4754455.ttf") format("truetype"), url("//at.alicdn.com/t/font_1442373896_4754455.svg#ifont") format("svg"); }

]]></style></defs><g class="transform-group"><g transform="scale(0.1953125, 0.1953125)"><path d="M511.95733 0C229.224435 0 0 200.550046 0 447.951996c0 141.409117 75.014251 267.286274 192.016001 349.383782l0 226.578882 224.27469-136.11801c31.063922 5.120427 62.981248 8.107342 95.666639 8.107342 282.732894 0 511.95733-200.550046 511.95733-447.951996S794.775565 0 511.95733 0zM256.021335 511.95733c-35.330944 0-64.005334-28.67439-64.005334-64.005334S220.60505 383.946662 256.021335 383.946662s64.005334 28.67439 64.005334 64.005334S291.352279 511.95733 256.021335 511.95733zM511.95733 511.95733c-35.330944 0-64.005334-28.67439-64.005334-64.005334s28.67439-64.005334 64.005334-64.005334 64.005334 28.67439 64.005334 64.005334S547.288274 511.95733 511.95733 511.95733zM767.978665 511.95733c-35.330944 0-64.005334-28.67439-64.005334-64.005334s28.67439-64.005334 64.005334-64.005334 64.005334 28.67439 64.005334 64.005334S803.309609 511.95733 767.978665 511.95733z" fill="#00bcd4"></path></g></g></svg>