<?xml version="1.0" standalone="no"?><!DOCTYPE svg PUBLIC "-//W3C//DTD SVG 1.1//EN" "http://www.w3.org/Graphics/SVG/1.1/DTD/svg11.dtd"><svg width="200" height="200" viewBox="0 0 200 200" version="1.1" xmlns="http://www.w3.org/2000/svg" xmlns:xlink="http://www.w3.org/1999/xlink"><defs><style type="text/css"><![CDATA[
@font-face { font-family: ifont; src: url("//at.alicdn.com/t/font_1442373896_4754455.eot?#iefix") format("embedded-opentype"), url("//at.alicdn.com/t/font_1442373896_4754455.woff") format("woff"), url("//at.alicdn.com/t/font_1442373896_4754455.ttf") format("truetype"), url("//at.alicdn.com/t/font_1442373896_4754455.svg#ifont") format("svg"); }

]]></style></defs><g class="transform-group"><g transform="scale(0.1953125, 0.1953125)"><path d="M512.000512 69.619614c-244.319471 0-442.380386 167.587879-442.380386 374.321314 0 119.766734 66.728774 226.14146 170.146145 294.632367L239.76627 920.351362c0 1.362021 0.630357 2.52552 0.76441 3.821025 0.265036 2.324952 0.630357 4.551666 1.362021 6.812149 0.76441 2.25946 1.827625 4.28663 3.02387 6.313799 0.664126 1.12973 0.864694 2.39249 1.661849 3.455705 0.431835 0.565888 1.095961 0.765433 1.528819 1.297552 2.358721 2.791579 5.183046 4.950755 8.3072 6.879688 1.12973 0.697895 2.060939 1.627057 3.257184 2.192945 4.320399 1.9934 9.038864 3.257184 14.123672 3.257184 0 0 0 0 0.032746 0 4.054339 0 8.075933-0.930185 11.963473-2.425236 1.428535-0.532119 2.591011-1.330298 3.921309-2.02717 1.49505-0.830925 3.090385-1.296529 4.486174-2.359744L469.065653 816.434617c14.123672 1.163499 28.445866 1.828648 42.934858 1.828648 244.319471 0 442.381409-167.587879 442.381409-374.322337S756.31896 69.619614 512.000512 69.619614zM561.315684 747.214093l-0.032746 0.032746c-16.149818 1.762133-32.532951 2.958378-49.282427 2.958378-21.169135 0-41.771359-1.793856-61.97654-4.552689l-142.198629 106.640786 0-151.868873c-24.957415-13.291724-47.720861-29.0445-68.058049-46.723138l0-0.198521c-63.107293-54.832839-102.08912-128.47507-102.08912-209.559806 0-168.883385 167.920454-306.263266 374.322337-306.263266S886.321826 275.057543 886.321826 443.940928C886.321826 599.09973 744.423025 727.375256 561.315684 747.214093zM353.185436 443.940928c0 21.933545-17.745153 39.712467-39.677675 39.712467-21.966291 0-39.712467-17.778922-39.712467-39.712467 0-21.932522 17.746176-39.711444 39.712467-39.711444C335.441307 404.230508 353.185436 422.00943 353.185436 443.940928zM551.711955 443.940928c0 21.933545-17.778922 39.712467-39.712467 39.712467-21.932522 0-39.712467-17.778922-39.712467-39.712467 0-21.932522 17.779945-39.711444 39.712467-39.711444C533.933033 404.230508 551.711955 422.00943 551.711955 443.940928zM750.205729 443.940928c0 21.933545-17.746176 39.712467-39.71349 39.712467-21.932522 0-39.676651-17.778922-39.676651-39.712467 0-21.932522 17.745153-39.711444 39.676651-39.711444C732.459552 404.230508 750.205729 422.00943 750.205729 443.940928z" fill="#757575"></path></g></g></svg>