<?xml version="1.0" standalone="no"?><!DOCTYPE svg PUBLIC "-//W3C//DTD SVG 1.1//EN" "http://www.w3.org/Graphics/SVG/1.1/DTD/svg11.dtd"><svg width="200" height="200" viewBox="0 0 200 200" version="1.1" xmlns="http://www.w3.org/2000/svg" xmlns:xlink="http://www.w3.org/1999/xlink"><defs><style type="text/css"><![CDATA[
@font-face { font-family: ifont; src: url("//at.alicdn.com/t/font_1442373896_4754455.eot?#iefix") format("embedded-opentype"), url("//at.alicdn.com/t/font_1442373896_4754455.woff") format("woff"), url("//at.alicdn.com/t/font_1442373896_4754455.ttf") format("truetype"), url("//at.alicdn.com/t/font_1442373896_4754455.svg#ifont") format("svg"); }

]]></style></defs><g class="transform-group"><g transform="scale(0.1953125, 0.1953125)"><path d="M636.879684 416.113139 381.262912 416.113139c-17.634636 0-31.949666-14.312984-31.949666-31.952736 0-17.639752 14.31503-31.954783 31.949666-31.954783l255.616772 0c17.669428 0 31.954783 14.314007 31.954783 31.954783C668.834466 401.800155 654.549112 416.113139 636.879684 416.113139L636.879684 416.113139zM576.233442 543.921014 381.262912 543.921014c-17.634636 0-31.949666-14.314007-31.949666-31.954783 0-17.634636 14.31503-31.948643 31.949666-31.948643l194.971553 0c17.669428 0 31.954783 14.312984 31.954783 31.948643C608.188224 529.607006 593.873194 543.921014 576.233442 543.921014L576.233442 543.921014zM958.638875 448.062805c0-211.426317-200.661136-383.422599-447.332165-383.422599-246.664889 0-447.327048 171.996283-447.327048 383.422599 0 116.338658 62.948681 225.712695 172.670641 300.223712 14.602579 9.969049 34.474163 6.133697 44.38079-8.498558 9.902534-14.602579 6.099928-34.478256-8.502651-44.381813-91.923596-62.405305-144.646378-152.538115-144.646378-247.343341 0-176.179558 171.998329-319.520197 383.423623-319.520197 211.43041 0 383.427716 143.339616 383.427716 319.520197 0 176.185698-171.997306 319.521221-383.427716 319.521221-1.980097 0-3.671623 0.765433-5.558599 1.121544-15.113209-2.715855-30.417777 5.206582-35.722596 20.160155-6.133697 17.350157-46.298466 46.586015-94.003977 73.680093 17.415648-58.116629 9.078773-70.580498 3.486404-78.859046-6.708795-9.969049-17.893532-15.907295-29.877471-15.907295-17.634636 0-31.948643 14.280238-31.948643 31.948643 0 5.818519 1.529843 11.248182 4.245697 15.941064-3.227508 18.184151-17.190521 60.744479-33.005718 99.694583-4.920056 12.076036-1.980097 25.944905 7.381108 35.018561 6.069229 5.879917 14.089903 8.977465 22.24156 8.977465 4.372587 0 8.785084-0.893346 12.969383-2.750647 36.424584-16.228613 147.429771-69.010747 187.334619-125.440967C762.034125 827.65517 958.638875 657.320737 958.638875 448.062805L958.638875 448.062805zM958.638875 448.062805" fill="#757575"></path></g></g></svg>